<mxfile host="app.diagrams.net" modified="2022-05-16T12:48:31.858Z" agent="5.0 (Macintosh; Intel Mac OS X 10_15_7) AppleWebKit/605.1.15 (KHTML, like Gecko) Version/15.4 Safari/605.1.15" etag="iy-CH9DMCbehBjlbFsQn" version="18.0.5" type="github" pages="2">
  <diagram id="Kr1V_YqZ1zZSnDGogX7_" name="Page-1">
    <mxGraphModel dx="909" dy="637" grid="1" gridSize="10" guides="1" tooltips="1" connect="1" arrows="1" fold="1" page="1" pageScale="1" pageWidth="827" pageHeight="1169" math="0" shadow="0">
      <root>
        <mxCell id="0" />
        <mxCell id="1" parent="0" />
        <mxCell id="3MQEsy6rxnxDCNxZh4Qa-6" style="edgeStyle=orthogonalEdgeStyle;rounded=0;orthogonalLoop=1;jettySize=auto;html=1;exitX=0.5;exitY=0;exitDx=0;exitDy=0;entryX=0.5;entryY=1;entryDx=0;entryDy=0;endArrow=none;endFill=0;" parent="1" source="3MQEsy6rxnxDCNxZh4Qa-1" target="3MQEsy6rxnxDCNxZh4Qa-3" edge="1">
          <mxGeometry relative="1" as="geometry" />
        </mxCell>
        <mxCell id="3MQEsy6rxnxDCNxZh4Qa-1" value="Backend&lt;br&gt;(Python)" style="whiteSpace=wrap;html=1;aspect=fixed;" parent="1" vertex="1">
          <mxGeometry x="100" y="200" width="80" height="80" as="geometry" />
        </mxCell>
        <mxCell id="3MQEsy6rxnxDCNxZh4Qa-5" style="edgeStyle=orthogonalEdgeStyle;rounded=0;orthogonalLoop=1;jettySize=auto;html=1;exitX=0.5;exitY=0;exitDx=0;exitDy=0;exitPerimeter=0;entryX=0.5;entryY=1;entryDx=0;entryDy=0;endArrow=none;endFill=0;" parent="1" source="3MQEsy6rxnxDCNxZh4Qa-2" target="3MQEsy6rxnxDCNxZh4Qa-1" edge="1">
          <mxGeometry relative="1" as="geometry" />
        </mxCell>
        <mxCell id="3MQEsy6rxnxDCNxZh4Qa-2" value="Database&lt;br&gt;- Organizations&lt;br&gt;- Users?&lt;br&gt;- Projects&lt;br&gt;- Donors?&lt;br&gt;- Donations" style="shape=cylinder3;whiteSpace=wrap;html=1;boundedLbl=1;backgroundOutline=1;size=15;" parent="1" vertex="1">
          <mxGeometry x="45" y="340" width="190" height="140" as="geometry" />
        </mxCell>
        <mxCell id="3MQEsy6rxnxDCNxZh4Qa-3" value="Frontend&lt;br&gt;(HTML/JS)" style="whiteSpace=wrap;html=1;aspect=fixed;" parent="1" vertex="1">
          <mxGeometry x="100" y="70" width="80" height="80" as="geometry" />
        </mxCell>
        <mxCell id="3MQEsy6rxnxDCNxZh4Qa-7" value="- AKS&lt;br&gt;- ACI&lt;br&gt;- Azure App Service&lt;br&gt;- Azure Functions" style="text;html=1;strokeColor=none;fillColor=none;align=center;verticalAlign=middle;whiteSpace=wrap;rounded=0;" parent="1" vertex="1">
          <mxGeometry x="190" y="215" width="160" height="50" as="geometry" />
        </mxCell>
        <mxCell id="3MQEsy6rxnxDCNxZh4Qa-8" value="- Cosmos DB" style="text;html=1;strokeColor=none;fillColor=none;align=center;verticalAlign=middle;whiteSpace=wrap;rounded=0;" parent="1" vertex="1">
          <mxGeometry x="220" y="380" width="160" height="45" as="geometry" />
        </mxCell>
        <mxCell id="3MQEsy6rxnxDCNxZh4Qa-9" value="" style="swimlane;startSize=0;" parent="1" vertex="1">
          <mxGeometry x="420" y="65" width="380" height="215" as="geometry" />
        </mxCell>
        <mxCell id="3MQEsy6rxnxDCNxZh4Qa-10" value="Azure AD?" style="whiteSpace=wrap;html=1;aspect=fixed;" parent="1" vertex="1">
          <mxGeometry x="80" y="510" width="110" height="110" as="geometry" />
        </mxCell>
      </root>
    </mxGraphModel>
  </diagram>
  <diagram id="IBXxa6VxNkeAjYu8iDvz" name="Page-2">
    <mxGraphModel dx="909" dy="637" grid="1" gridSize="10" guides="1" tooltips="1" connect="1" arrows="1" fold="1" page="1" pageScale="1" pageWidth="827" pageHeight="1169" math="0" shadow="0">
      <root>
        <mxCell id="0" />
        <mxCell id="1" parent="0" />
        <mxCell id="Iu91ZMGlJv96XgV0TOTx-1" value="Create an Organisation" style="whiteSpace=wrap;html=1;aspect=fixed;" parent="1" vertex="1">
          <mxGeometry x="160" y="90" width="80" height="80" as="geometry" />
        </mxCell>
        <mxCell id="Iu91ZMGlJv96XgV0TOTx-2" value="Create a user in Org" style="whiteSpace=wrap;html=1;aspect=fixed;" parent="1" vertex="1">
          <mxGeometry x="270" y="90" width="80" height="80" as="geometry" />
        </mxCell>
        <mxCell id="Iu91ZMGlJv96XgV0TOTx-3" value="Create a Project" style="whiteSpace=wrap;html=1;aspect=fixed;" parent="1" vertex="1">
          <mxGeometry x="370" y="90" width="80" height="80" as="geometry" />
        </mxCell>
        <mxCell id="Iu91ZMGlJv96XgV0TOTx-4" value="Enter a Donation" style="whiteSpace=wrap;html=1;aspect=fixed;" parent="1" vertex="1">
          <mxGeometry x="470" y="90" width="80" height="80" as="geometry" />
        </mxCell>
        <mxCell id="Iu91ZMGlJv96XgV0TOTx-5" value="Sysadmin" style="shape=umlActor;verticalLabelPosition=bottom;verticalAlign=top;html=1;outlineConnect=0;fillColor=#dae8fc;strokeColor=#6c8ebf;" parent="1" vertex="1">
          <mxGeometry x="200" y="20" width="15" height="30" as="geometry" />
        </mxCell>
        <mxCell id="Iu91ZMGlJv96XgV0TOTx-8" value="" style="edgeStyle=orthogonalEdgeStyle;rounded=0;orthogonalLoop=1;jettySize=auto;html=1;endArrow=none;endFill=0;" parent="1" source="Iu91ZMGlJv96XgV0TOTx-7" target="Iu91ZMGlJv96XgV0TOTx-2" edge="1">
          <mxGeometry relative="1" as="geometry" />
        </mxCell>
        <mxCell id="Iu91ZMGlJv96XgV0TOTx-7" value="Org admin" style="shape=umlActor;verticalLabelPosition=bottom;verticalAlign=top;html=1;outlineConnect=0;fillColor=#f8cecc;strokeColor=#b85450;" parent="1" vertex="1">
          <mxGeometry x="302.5" y="20" width="15" height="30" as="geometry" />
        </mxCell>
        <mxCell id="Iu91ZMGlJv96XgV0TOTx-9" value="Org admin" style="shape=umlActor;verticalLabelPosition=bottom;verticalAlign=top;html=1;outlineConnect=0;fillColor=#f8cecc;strokeColor=#b85450;" parent="1" vertex="1">
          <mxGeometry x="402.5" y="20" width="15" height="30" as="geometry" />
        </mxCell>
        <mxCell id="Iu91ZMGlJv96XgV0TOTx-10" value="Med officer" style="shape=umlActor;verticalLabelPosition=bottom;verticalAlign=top;html=1;outlineConnect=0;fillColor=#e1d5e7;strokeColor=#9673a6;" parent="1" vertex="1">
          <mxGeometry x="510" y="20" width="15" height="30" as="geometry" />
        </mxCell>
        <mxCell id="Iu91ZMGlJv96XgV0TOTx-11" value="View donor report" style="whiteSpace=wrap;html=1;aspect=fixed;" parent="1" vertex="1">
          <mxGeometry x="580" y="90" width="80" height="80" as="geometry" />
        </mxCell>
        <mxCell id="Iu91ZMGlJv96XgV0TOTx-12" value="View Project report" style="whiteSpace=wrap;html=1;aspect=fixed;" parent="1" vertex="1">
          <mxGeometry x="690" y="90" width="80" height="80" as="geometry" />
        </mxCell>
        <mxCell id="Iu91ZMGlJv96XgV0TOTx-13" value="Donor" style="shape=umlActor;verticalLabelPosition=bottom;verticalAlign=top;html=1;outlineConnect=0;fillColor=#d5e8d4;strokeColor=#82b366;" parent="1" vertex="1">
          <mxGeometry x="612.5" y="20" width="15" height="30" as="geometry" />
        </mxCell>
        <mxCell id="Iu91ZMGlJv96XgV0TOTx-14" value="Org admin" style="shape=umlActor;verticalLabelPosition=bottom;verticalAlign=top;html=1;outlineConnect=0;fillColor=#f8cecc;strokeColor=#b85450;" parent="1" vertex="1">
          <mxGeometry x="722.5" y="20" width="15" height="30" as="geometry" />
        </mxCell>
        <mxCell id="wNY_o9J10fC-_MrzR8gk-1" value="Manage users" style="whiteSpace=wrap;html=1;aspect=fixed;" vertex="1" parent="1">
          <mxGeometry x="60" y="90" width="80" height="80" as="geometry" />
        </mxCell>
        <mxCell id="wNY_o9J10fC-_MrzR8gk-2" value="Sysadmin" style="shape=umlActor;verticalLabelPosition=bottom;verticalAlign=top;html=1;outlineConnect=0;fillColor=#dae8fc;strokeColor=#6c8ebf;" vertex="1" parent="1">
          <mxGeometry x="100" y="20" width="15" height="30" as="geometry" />
        </mxCell>
        <mxCell id="wNY_o9J10fC-_MrzR8gk-3" value="Create user&lt;br&gt;- name&lt;br&gt;- email" style="text;html=1;strokeColor=none;fillColor=none;align=center;verticalAlign=middle;whiteSpace=wrap;rounded=0;" vertex="1" parent="1">
          <mxGeometry x="55" y="200" width="75" height="30" as="geometry" />
        </mxCell>
        <mxCell id="wNY_o9J10fC-_MrzR8gk-4" value="- name&lt;br&gt;- admin user" style="text;html=1;strokeColor=none;fillColor=none;align=center;verticalAlign=middle;whiteSpace=wrap;rounded=0;" vertex="1" parent="1">
          <mxGeometry x="165" y="210" width="75" height="30" as="geometry" />
        </mxCell>
        <mxCell id="wNY_o9J10fC-_MrzR8gk-5" value="- name&lt;br&gt;- admin user" style="text;html=1;strokeColor=none;fillColor=none;align=center;verticalAlign=middle;whiteSpace=wrap;rounded=0;" vertex="1" parent="1">
          <mxGeometry x="275" y="210" width="75" height="30" as="geometry" />
        </mxCell>
        <mxCell id="wNY_o9J10fC-_MrzR8gk-6" value="- name&lt;br&gt;- other text fields&lt;br&gt;- start date&lt;br&gt;- target end date&lt;br&gt;- resource plan&lt;br&gt;*) sample type&lt;br&gt;*) count" style="text;html=1;strokeColor=none;fillColor=none;align=center;verticalAlign=middle;whiteSpace=wrap;rounded=0;" vertex="1" parent="1">
          <mxGeometry x="360" y="220" width="100" height="30" as="geometry" />
        </mxCell>
        <mxCell id="wNY_o9J10fC-_MrzR8gk-8" value="" style="edgeStyle=orthogonalEdgeStyle;rounded=0;orthogonalLoop=1;jettySize=auto;html=1;endArrow=none;endFill=0;" edge="1" parent="1" source="wNY_o9J10fC-_MrzR8gk-7" target="Iu91ZMGlJv96XgV0TOTx-4">
          <mxGeometry relative="1" as="geometry" />
        </mxCell>
        <mxCell id="wNY_o9J10fC-_MrzR8gk-7" value="- donor ID&lt;br&gt;- sample type&lt;br&gt;- date&lt;br&gt;- Project ID" style="text;html=1;strokeColor=none;fillColor=none;align=center;verticalAlign=middle;whiteSpace=wrap;rounded=0;" vertex="1" parent="1">
          <mxGeometry x="460" y="220" width="100" height="30" as="geometry" />
        </mxCell>
        <mxCell id="wNY_o9J10fC-_MrzR8gk-9" value="- by donor ID" style="text;html=1;strokeColor=none;fillColor=none;align=center;verticalAlign=middle;whiteSpace=wrap;rounded=0;" vertex="1" parent="1">
          <mxGeometry x="570" y="220" width="100" height="30" as="geometry" />
        </mxCell>
      </root>
    </mxGraphModel>
  </diagram>
</mxfile>
